<svg t="1664349945872" class="icon" viewBox="0 0 1024 1024" version="1.1" xmlns="http://www.w3.org/2000/svg" p-id="2147" width="200" height="200"><path d="M839.168 491.648L793.6 446.08a125.44 125.44 0 0 0 20.224-15.872 121.6 121.6 0 0 0-172.032-172.032 125.44 125.44 0 0 0-15.872 20.224l-45.568-45.568a111.616 111.616 0 0 0-157.568 0L373.75999999 281.6l4.48000001 4.608-3.712 5.12a122.496 122.496 0 0 1 13.952 11.904 108.8 108.8 0 1 1-166.4 139.904l-5.12 3.712-4.608-4.48-49.024 49.024a111.616 111.616 0 0 0 0 157.568l55.04 55.04 4.48000001-4.608 6.01599999 2.432A107.008 107.008 0 0 1 252.672 665.6a108.8 108.8 0 1 1 153.6 153.6 107.008 107.008 0 0 1-35.968 23.808l2.432 6.016-4.608 4.48L422.4 908.032a111.616 111.616 0 0 0 157.568 0L839.168 649.216a111.616 111.616 0 0 0 0-157.568z m-267.904 407.296a98.56 98.56 0 0 1-139.392 0L384 851.072a119.296 119.296 0 0 0 31.616-22.656A121.6 121.6 0 0 0 243.2 656.384a119.296 119.296 0 0 0-22.656 31.616L173.056 640a98.56 98.56 0 0 1 0-139.392l43.904-43.904a119.296 119.296 0 0 0 8.576 9.47199999A121.6 121.6 0 0 0 396.8 294.4c-3.072-3.072-6.272-5.888-9.472-8.576l44.544-43.904a98.688 98.688 0 0 1 139.392 0l51.2 51.2 4.736-4.48 5.632 2.944A108.8 108.8 0 1 1 780.8 439.424l2.944 5.632-4.48 4.48 51.2 51.2a98.688 98.688 0 0 1-1e-8 139.392z" p-id="2148"></path></svg>